<svg width="63" height="84" viewBox="0 0 63 84" fill="none" xmlns="http://www.w3.org/2000/svg">
<circle cx="39.177" cy="59.9998" r="20.6471" stroke="white" stroke-width="6.35294"/>
<path d="M0 56.8232L16.0588 58.0585V64.235L0 65.2938V56.8232Z" fill="white"/>
<path d="M30.0358 12.4777C30.7869 11.5812 30.669 10.2456 29.7726 9.49446C28.8761 8.74335 27.5405 8.8612 26.7893 9.75768L30.0358 12.4777ZM28.4126 23.6471L30.2284 22.5576C30.1562 22.4371 30.0721 22.3241 29.9774 22.2203L28.4126 23.6471ZM25.9633 32.8108C25.1766 33.6762 25.2403 35.0155 26.1057 35.8023C26.9711 36.589 28.3104 36.5252 29.0971 35.6598L25.9633 32.8108ZM26.7893 9.75768C25.6702 11.0935 24.3745 13.3839 23.9907 16.1025C23.5941 18.9116 24.1852 22.1536 26.8477 25.0739L29.9774 22.2203C28.2635 20.3406 27.9428 18.4061 28.1844 16.6946C28.4388 14.8926 29.3315 13.3183 30.0358 12.4777L26.7893 9.75768ZM26.5967 24.7366C27.1386 25.6397 27.8037 26.1773 28.0817 27.5181C28.2974 28.5589 28.2313 30.316 25.9633 32.8108L29.0971 35.6598C32.1232 32.3311 32.763 29.2353 32.2288 26.6584C31.7568 24.3816 30.216 22.5368 30.2284 22.5576L26.5967 24.7366Z" fill="white"/>
<path d="M41.2741 4.36C42.0252 3.46352 41.9073 2.12788 41.0108 1.37678C40.1144 0.625676 38.7787 0.743525 38.0276 1.64L41.2741 4.36ZM39.6509 15.5294L41.4667 14.4399C41.3944 14.3194 41.3104 14.2065 41.2157 14.1026L39.6509 15.5294ZM37.2016 24.6932C36.4148 25.5586 36.4786 26.8979 37.344 27.6846C38.2094 28.4713 39.5487 28.4075 40.3354 27.5421L37.2016 24.6932ZM38.0276 1.64C36.9084 2.97582 35.6128 5.26624 35.229 7.98484C34.8324 10.794 35.4234 14.0359 38.086 16.9562L41.2157 14.1026C39.5018 12.2229 39.1811 10.2884 39.4227 8.57692C39.6771 6.77493 40.5697 5.20065 41.2741 4.36L38.0276 1.64ZM37.835 16.6189C38.3768 17.522 39.042 18.0596 39.3199 19.4005C39.5357 20.4412 39.4696 22.1983 37.2016 24.6932L40.3354 27.5421C43.3615 24.2135 44.0013 21.1176 43.4671 18.5407C42.995 16.2639 41.4543 14.4191 41.4667 14.4399L37.835 16.6189Z" fill="white"/>
<path d="M53.6276 12.4777C54.3787 11.5812 54.2608 10.2456 53.3644 9.49446C52.4679 8.74335 51.1323 8.8612 50.3811 9.75768L53.6276 12.4777ZM52.0044 23.6471L53.8202 22.5576C53.748 22.4371 53.6639 22.3241 53.5692 22.2203L52.0044 23.6471ZM49.5551 32.8108C48.7684 33.6762 48.8321 35.0155 49.6975 35.8023C50.5629 36.589 51.9022 36.5252 52.6889 35.6598L49.5551 32.8108ZM50.3811 9.75768C49.2619 11.0935 47.9663 13.3839 47.5825 16.1025C47.1859 18.9116 47.777 22.1536 50.4395 25.0739L53.5692 22.2203C51.8553 20.3406 51.5346 18.4061 51.7762 16.6946C52.0306 14.8926 52.9233 13.3183 53.6276 12.4777L50.3811 9.75768ZM50.1885 24.7366C50.7304 25.6397 51.3955 26.1773 51.6735 27.5181C51.8892 28.5589 51.8231 30.316 49.5551 32.8108L52.6889 35.6598C55.715 32.3311 56.3548 29.2353 55.8206 26.6584C55.3485 24.3816 53.8078 22.5368 53.8202 22.5576L50.1885 24.7366Z" fill="white"/>
</svg>
